<svg xmlns="http://www.w3.org/2000/svg" width="16.606" height="16.6" viewBox="0 0 16.606 16.6"><g transform="translate(0.3 0.3)"><g transform="translate(0.005 0)"><path d="M15.943.312a.751.751,0,0,0-1.062,0L.383,14.81a.751.751,0,1,0,1.062,1.062l14.5-14.5A.751.751,0,0,0,15.943.312Z" transform="translate(-0.163 -0.092)" fill="#fff" stroke="#009b7b" stroke-width="0.6"/></g><g transform="translate(0 0.005)"><path d="M3.568.256A3.568,3.568,0,1,0,7.137,3.824,3.573,3.573,0,0,0,3.568.256Zm0,5.634A2.066,2.066,0,1,1,5.634,3.824,2.068,2.068,0,0,1,3.568,5.89Z" transform="translate(0 -0.256)" fill="#fff" stroke="#009b7b" stroke-width="0.6"/></g><g transform="translate(8.869 8.863)"><path d="M287.28,283.6a3.568,3.568,0,1,0,3.568,3.568A3.572,3.572,0,0,0,287.28,283.6Zm0,5.634a2.066,2.066,0,1,1,2.066-2.066A2.068,2.068,0,0,1,287.28,289.23Z" transform="translate(-283.712 -283.596)" fill="#fff" stroke="#009b7b" stroke-width="0.6"/></g></g></svg>