<svg xmlns="http://www.w3.org/2000/svg" width="23.075" height="16.568" viewBox="0 0 23.075 16.568"><path d="M22.382,6.1,18.84,2.623a.667.667,0,0,0-.468-.19H15.491V2.387A2.412,2.412,0,0,0,13.059,0H2.432A2.412,2.412,0,0,0,0,2.387v8.689a2.412,2.412,0,0,0,2.432,2.386H2.9a3.331,3.331,0,0,0,6.5,0h3.769a3.331,3.331,0,0,0,6.5,0h2.239a.655.655,0,0,0,.661-.649V6.557A.642.642,0,0,0,22.382,6.1ZM18.1,3.731l2.219,2.178H15.491V3.731ZM1.323,11.075V2.387A1.1,1.1,0,0,1,2.432,1.3H13.059a1.1,1.1,0,0,1,1.11,1.089v8.041a3.24,3.24,0,0,0-1,1.736H9.4a3.331,3.331,0,0,0-6.5,0H2.432A1.1,1.1,0,0,1,1.323,11.075Zm4.829,3.7a1.958,1.958,0,1,1,2-1.958A1.979,1.979,0,0,1,6.152,14.771Zm10.272,0a1.958,1.958,0,1,1,2-1.958A1.979,1.979,0,0,1,16.424,14.771Zm3.252-2.607a3.309,3.309,0,0,0-3.252-2.607,3.362,3.362,0,0,0-.933.132V7.206h5.761v4.958H19.675Zm0,0" transform="translate(0.25 0.25)" fill="#fff" stroke="#009b7b" stroke-width="0.5"/></svg>