<svg xmlns="http://www.w3.org/2000/svg" width="29.114" height="27.718" viewBox="0 0 29.114 27.718"><path d="M-13.1-47.28H-18.15v1.251h4.09L-8.935-24.9a2.755,2.755,0,0,0-1.877,2.6,2.737,2.737,0,0,0,2.719,2.743A2.742,2.742,0,0,0-5.35-22.3a2.764,2.764,0,0,0-.433-1.468h7.05A2.764,2.764,0,0,0,.834-22.3a2.742,2.742,0,0,0,2.743,2.743A2.737,2.737,0,0,0,6.3-22.3a2.732,2.732,0,0,0-2.719-2.719H-7.683l-.674-2.815H6.777l4.187-11.982H-11.269Zm22.28,8.71-3.3,9.48H-8.67l-2.31-9.48ZM-6.6-22.3a1.5,1.5,0,0,1-1.492,1.492A1.479,1.479,0,0,1-9.56-22.3a1.458,1.458,0,0,1,1.468-1.468A1.479,1.479,0,0,1-6.6-22.3Zm11.646,0a1.479,1.479,0,0,1-1.468,1.492A1.5,1.5,0,0,1,2.085-22.3a1.479,1.479,0,0,1,1.492-1.468A1.458,1.458,0,0,1,5.045-22.3Z" transform="translate(18.15 47.28)" fill="#4a4a4a"/></svg>