<svg xmlns="http://www.w3.org/2000/svg" width="51.609" height="52" viewBox="0 0 51.609 52"><path d="M283.9-680a25.133,25.133,0,0,1,1.955-9.745,25.523,25.523,0,0,1,5.6-8.276,25.817,25.817,0,0,1,3.4-2.829,25.848,25.848,0,0,1,3.836-2.206h0l.2-.093c.876-.4,1.7-.784,2.6-1.112a20.627,20.627,0,0,1,2.373-1.592.456.456,0,0,1,.193-.058h0l4.237-.293,4.254-.294a.457.457,0,0,1,.143.013h0c.01,0,3.435.853,4.3,2.07.014.019.028.04.042.062.639.175,1.244.363,1.846.556l.022.006h0l0,0,.021.008h0a25.84,25.84,0,0,1,4.78,2.414,25.843,25.843,0,0,1,4.181,3.349,25.52,25.52,0,0,1,5.608,8.275A25.133,25.133,0,0,1,335.463-680a25.165,25.165,0,0,1-1.955,9.753,25.525,25.525,0,0,1-5.606,8.282,25.845,25.845,0,0,1-8.372,5.532,25.969,25.969,0,0,1-9.858,1.931,25.932,25.932,0,0,1-9.852-1.932,25.836,25.836,0,0,1-7.825-5.013c-.786.02-1.644.01-2.461-.038a16.173,16.173,0,0,1-2.474-.312,3.948,3.948,0,0,1-1.555-.626h0a2.747,2.747,0,0,1-.911-1.386,4.58,4.58,0,0,1-.134-1.772c-.056-.155-.126-.367-.2-.634-.094-.326-.2-.753-.315-1.3a3.92,3.92,0,0,1-.035-1.469,3.521,3.521,0,0,1,.421-1.166c-.086-.39-.2-.961-.295-1.509a8.809,8.809,0,0,1-.129-1.174,1.988,1.988,0,0,1,.2-.981,2.494,2.494,0,0,1,.418-.567A25.282,25.282,0,0,1,283.9-680" transform="translate(-283.854 706.503)" fill="#fff" fill-rule="evenodd"/><path d="M288.244-654.342a24.8,24.8,0,0,1,7.422-17.695,25.394,25.394,0,0,1,7.11-4.948q-.217.763-.407,1.554a24.173,24.173,0,0,0-5.853,4.259,23.587,23.587,0,0,0-7.056,16.83,23.61,23.61,0,0,0,7.054,16.842,24.169,24.169,0,0,0,17.046,6.981,24.193,24.193,0,0,0,17.059-6.979,23.6,23.6,0,0,0,7.058-16.844,23.582,23.582,0,0,0-7.06-16.831,24.172,24.172,0,0,0-7.357-4.971q-.286-.793-.6-1.554a25.4,25.4,0,0,1,8.8,5.661,24.8,24.8,0,0,1,7.426,17.7,24.818,24.818,0,0,1-7.424,17.709,25.4,25.4,0,0,1-17.909,7.331,25.377,25.377,0,0,1-17.9-7.332,24.824,24.824,0,0,1-7.42-17.707" transform="translate(-287.765 680.844)" fill="#009b7b"/><path d="M615.355-643.947a22.593,22.593,0,0,1,11.881,16.478l-7.742.016a15.462,15.462,0,0,0-2.95-6.03,39.493,39.493,0,0,0-.13-4.971,28.488,28.488,0,0,0-1.059-5.493" transform="translate(-579.161 650.777)" fill="#e51636" fill-rule="evenodd"/><path d="M438.52-668.918h-3.5l.57-3.211-2.543-.244-.831,7.2-.049.049-14.18-.114-1.5-8.019-2.477.375.717,8.117-3.129-2.135,1.581-4.075-.44-2.64,4.6-.782.033-2.445s-1.646-.261-1.809-1.255c-.163-1.011-.277-2.657-.277-2.657l-.619.163-1.418-1.483s.326-2.738-.065-3.162c-.391-.407-.391-1.956-.049-2.119a3.038,3.038,0,0,1,.782-.228l-.619-.554-.114-3.96c-.081-.016.049-.033-.033-.049,0,0,.587-5.607,1.206-6.764.6-1.173,3.52-2.82,3.52-2.82l4.238-.293,4.254-.293s3.276.815,4.042,1.891,2.119,6.976,2.119,6.976c-.212.1-.375.375-.636.456l1.125,1.451.228,3.015-.9.668.57.342.326.978-.277,1.369s-.228,1.141,0,1.5a3.609,3.609,0,0,1,.342.766l-.962,1.467-1.141-.082v1.711s-.261,2.07-1.288,2.461v3.846L432-672.422l.065-1.32,4.629.864-.473,2.64Z" transform="translate(-397.648 702.771)" fill="#009b7b" fill-rule="evenodd"/><path d="M546.877-557.367s-.717.978-.13,1.043c.57.065,1.581.1,1.581.1s.815,1.434,1.483,1.288c.929-.179.554-1.451.554-1.451l-.293-.848Z" transform="translate(-517.837 573.65)" fill="#fff" fill-rule="evenodd"/><path d="M552.568-528.408l-.505.424s1.532,2.217,1.451,3.455l.864-1.777a3.582,3.582,0,0,0-.782-1.385c-.619-.717-1.027-.717-1.027-.717" transform="translate(-522.779 547.853)" fill="#fff" fill-rule="evenodd"/><path d="M433.816-614.01l-.016,3.944s.016.538-.359.424a4.285,4.285,0,0,1-1.027-.685l-.228,1.027,1.4.587-.016,1.19a3.9,3.9,0,0,1-3.406-1.239l.407-.636-.342-.212-1.3,1.646.6.375.277-.587a4.907,4.907,0,0,0,2.624,1.548c1.353.114,3.6.016,3.6.016s-.2,1.516-3.39.929l1.076,1.451,1.157-.244.668,1.271-.326,1.4-1.858.57-5.281-2.722a2.557,2.557,0,0,1-1.5-1.825c-.179-1.3-.277-2.3-.277-2.3l-1.076.033-.685-.668-.261-3.618s-.147-.587-.2-.831c-.033-.261.375-.473,1.011-.473s1.141.277,1.027.424a1,1,0,0,1-.652.326c-.375.065-.57.212-.522.391.049.2.424.962.424.962s.554,1.076-.587,1.239l1.01.6a3.215,3.215,0,0,1,1.043-2.314c1.059-.815,2.95-.7,3.6-.7s1.19.049,1.646-.7c.114-.179.228-.358.31-.521-8.312.293-9.16-4.531-9.16-4.531l19.8-1.3s1.206,4.6-8.817,5.7l-.407.049" transform="translate(-408.02 629.234)" fill="#fff" fill-rule="evenodd"/><path d="M427.515-382.864l8.491.081a22.533,22.533,0,0,1-20.373,13.348,21.886,21.886,0,0,1-12.7-4.042,5.429,5.429,0,0,0,4.189-2.966,4.273,4.273,0,0,0,.293-2.266,14.825,14.825,0,0,0,7.856,2.233,14.887,14.887,0,0,0,12.24-6.389" transform="translate(-389.935 418.2)" fill="#e51636" fill-rule="evenodd"/><path d="M473.622-694.1a5.249,5.249,0,0,1,1.858,4.026,5.321,5.321,0,0,1-1.239,3.406l-7.693.456a5.261,5.261,0,0,1-1.662-3.863,5.257,5.257,0,0,1,1.336-3.5Z" transform="translate(-445.12 695.457)" fill="#fff" fill-rule="evenodd"/><path d="M478.708-677.255a3.289,3.289,0,0,0-.554-.1,3.258,3.258,0,0,0-.554-.033,1.613,1.613,0,0,0-1.108.456,1.348,1.348,0,0,0-.342,1.092,1.2,1.2,0,0,0,.407.945,1.61,1.61,0,0,0,1.125.244c.179-.016.359-.032.538-.065a3.31,3.31,0,0,0,.538-.147l-.1,1.108c-.2.049-.407.1-.619.13s-.424.049-.636.065a2.791,2.791,0,0,1-1.972-.489,2.127,2.127,0,0,1-.75-1.679,2.35,2.35,0,0,1,.619-1.891,2.776,2.776,0,0,1,1.988-.766,4.335,4.335,0,0,1,.652,0c.212.016.44.033.668.065Z" transform="translate(-453.84 681.461)" fill="#e51636" fill-rule="evenodd"/><path d="M517.3-675.263q.049-.855.049-2c0-.782-.033-1.646-.065-2.624l3.439-.179V-679h-.8l-1.173.065c-.016.179-.016.326-.016.407a1.237,1.237,0,0,0,.016.244v.082l.913-.049c.228-.016.375-.016.489-.033a1.136,1.136,0,0,0,.261-.033l.016,1.092h-.244c-.1,0-.228,0-.407.016l-.326.016-.7.033v.945c0,.391.016.684.016.88Z" transform="translate(-491.795 682.957)" fill="#e51636" fill-rule="evenodd"/><path d="M478.743-451.46l-1.516-4.4-3.635-2.706-.049-2.966L476.168-460l2.771,2.266,2.266,1.923-1.76,4.384-.717-.033Z" transform="translate(-452.833 488.279)" fill="#fff" fill-rule="evenodd"/><path d="M330.3-519.448a6.365,6.365,0,0,0,.962-3.569c-.147-1.858-.994-6.389,1.581-6.438,2.591-.049,2.314,5.02,2.054,6a4.5,4.5,0,0,0,.57,3.732c.864,1.011,3.031,4.3,2.559,5.982a4.125,4.125,0,0,1-1.369,2.282s.945.75.766,2.917c-.163,1.858-1.646,2.917-7.073,2.885-5.444-.033-3.178-7.709-3.178-7.709Z" transform="translate(-322.026 548.787)" fill="#fff" fill-rule="evenodd"/><path d="M324.847-524.7a5.69,5.69,0,0,0,.865-3.188v0c-.02-.251-.047-.5-.077-.783-.071-.664-.156-1.463-.171-2.28-.038-2.028.372-3.987,2.423-4.026a2.326,2.326,0,0,1,.647.075h0a2.7,2.7,0,0,1,1.768,1.88,8.613,8.613,0,0,1,.411,2.629,9.356,9.356,0,0,1-.178,2.171,4.8,4.8,0,0,0-.09,1.863,2.7,2.7,0,0,0,.534,1.323h0a16.228,16.228,0,0,1,2.215,3.615,4.7,4.7,0,0,1,.467,2.923,5.49,5.49,0,0,1-1.14,2.179,4.7,4.7,0,0,1,.558,2.907v0a2.977,2.977,0,0,1-1.913,2.648,14.3,14.3,0,0,1-5.766.788c-6.249-.037-3.763-8.454-3.756-8.478l.019-.065.024-.047,3.129-6.079.012-.023.019-.029Zm2.071-3.292h0a6.978,6.978,0,0,1-1.038,3.918l-3.094,6.011c-.189.685-1.768,6.851,2.618,6.877a13.291,13.291,0,0,0,5.255-.679,1.869,1.869,0,0,0,1.212-1.654h0c.152-1.847-.542-2.4-.544-2.4l-.627-.512.667-.456a3.492,3.492,0,0,0,1.128-1.946,3.655,3.655,0,0,0-.415-2.123,14.825,14.825,0,0,0-2.021-3.3l0,0a3.874,3.874,0,0,1-.812-1.924,6.054,6.054,0,0,1,.118-2.35,8.107,8.107,0,0,0,.14-1.845,7.4,7.4,0,0,0-.345-2.245,1.582,1.582,0,0,0-.937-1.114h0a1.135,1.135,0,0,0-.315-.037c-1.057.02-1.262,1.385-1.235,2.8.014.739.1,1.521.167,2.171.034.316.064.6.081.811" transform="translate(-317.078 553.712)" fill="#009b7b"/><path d="M296.335-441.237s-1.353-.016-1.646,2.412c-.163,1.385-.994,1.239-.978,2.135a20.659,20.659,0,0,0,.505,2.934,2.416,2.416,0,0,0-.489,2.184,10.525,10.525,0,0,0,.57,2.021s-.359,1.662.6,2.429c1.173.945,7.514.864,8.312.489.782-.375,1.239-2.9-.13-3.211a2.733,2.733,0,0,0,.13-3.6,2.529,2.529,0,0,0,.505-3.749,2.908,2.908,0,0,0,1.108-2.2c-.016-1.092-.587-1.777-2-1.956-1.434-.163-6.487.114-6.487.114" transform="translate(-292.591 470.347)" fill="#fff" fill-rule="evenodd"/><path d="M291.158-445.785s-.793-.015-1.018,1.852h0a2.566,2.566,0,0,1-.767,1.658.563.563,0,0,0-.208.392,20.1,20.1,0,0,0,.488,2.8l.084.347-.25.25a1.757,1.757,0,0,0-.317,1.606,9.859,9.859,0,0,0,.526,1.881l.088.19-.043.206s-.275,1.282.376,1.8l0,0a7.6,7.6,0,0,0,3.051.562,18.47,18.47,0,0,0,4.593-.153,1.214,1.214,0,0,0,.321-.7,2.313,2.313,0,0,0,.057-.612,1.251,1.251,0,0,0-.1-.472.4.4,0,0,0-.275-.235l-1.119-.253.808-.816a2.1,2.1,0,0,0,.066-2.78l-.392-.541.562-.366a1.915,1.915,0,0,0,.321-2.864l-.331-.5.48-.36a2.227,2.227,0,0,0,.854-1.677v-.007a1.245,1.245,0,0,0-.3-.884,1.9,1.9,0,0,0-1.142-.447h0c-1.385-.157-6.37.116-6.385.117h-.027Zm-2.284,1.7c.336-2.784,2.013-2.961,2.246-2.972h0c.015,0,5.105-.28,6.589-.112l.01,0a3.1,3.1,0,0,1,1.9.822,2.452,2.452,0,0,1,.656,1.749h0a3.373,3.373,0,0,1-.939,2.325,3.005,3.005,0,0,1-.479,3.763,3.223,3.223,0,0,1-.035,3.278,1.789,1.789,0,0,1,.354.505,2.507,2.507,0,0,1,.227.96,3.587,3.587,0,0,1-.087.951,2.29,2.29,0,0,1-1.018,1.566l-.005,0a18.465,18.465,0,0,1-5.206.272,8.089,8.089,0,0,1-3.771-.839h0a3.163,3.163,0,0,1-.863-2.854,13.47,13.47,0,0,1-.537-1.966,3.2,3.2,0,0,1,.425-2.462,18.218,18.218,0,0,1-.454-2.773,1.578,1.578,0,0,1,.542-1.274,1.463,1.463,0,0,0,.438-.943Z" transform="translate(-287.408 475.53)" fill="#009b7b"/><path d="M334.5-409.284a.635.635,0,0,1,.645.625.635.635,0,0,1-.625.645l-5.721.1a.635.635,0,0,1-.645-.625.635.635,0,0,1,.625-.645Z" transform="translate(-323.316 441.735)" fill="#009b7b"/><path d="M331-374.353a.635.635,0,0,1,.645.625.635.635,0,0,1-.625.645l-5.509.1a.635.635,0,0,1-.645-.625.635.635,0,0,1,.625-.645Z" transform="translate(-320.39 410.618)" fill="#009b7b"/><path d="M329.611-341.362a.635.635,0,0,1,.645.625.635.635,0,0,1-.625.645l-5.46.1a.635.635,0,0,1-.645-.625.635.635,0,0,1,.625-.645Z" transform="translate(-319.194 381.23)" fill="#009b7b"/><path d="M312.924-618.336v-.245a22.579,22.579,0,0,1,11-19.395,29.946,29.946,0,0,0-.456,5.2q0,2.054.2,4.009c-.261.31-.538.636-.782.978a4.98,4.98,0,0,0-3.129-.391c-3.618.505-3.194,6.633-3.162,7.318a8.8,8.8,0,0,1-.31,2.331Z" transform="translate(-309.75 645.457)" fill="#e51636" fill-rule="evenodd"/></svg>