<svg xmlns="http://www.w3.org/2000/svg" width="77.352" height="35.928" viewBox="0 0 77.352 35.928">
  <g id="Grupo_949" data-name="Grupo 949" transform="translate(-1007 -5044)">
    <g id="Logo" transform="translate(1001.029 5039.055)">
      <g id="Grupo_714" data-name="Grupo 714" transform="translate(5.971 5.945)">
        <path id="Caminho_1555" data-name="Caminho 1555" d="M16.778,7.6H7.849V39.221h8.928v1.652H5.971V5.945H16.778Z" transform="translate(-5.971 -5.945)" fill="#efaf06"/>
      </g>
      <g id="Grupo_715" data-name="Grupo 715" transform="translate(13.701 13.238)">
        <path id="Caminho_1556" data-name="Caminho 1556" d="M65.811,65.954a2.1,2.1,0,0,0,1.4.483,2.474,2.474,0,0,0,1.091-.224,3.543,3.543,0,0,0,.909-.657l.993.881a4.089,4.089,0,0,1-1.266,1.007,3.8,3.8,0,0,1-1.755.377,3.942,3.942,0,0,1-1.489-.28,3.574,3.574,0,0,1-2.007-1.993,4.06,4.06,0,0,1-.294-1.573,4.176,4.176,0,0,1,.266-1.5,3.756,3.756,0,0,1,.748-1.223,3.613,3.613,0,0,1,1.14-.832A3.39,3.39,0,0,1,67,60.116a3.509,3.509,0,0,1,1.545.322,3.184,3.184,0,0,1,1.1.867,3.764,3.764,0,0,1,.664,1.272,5.159,5.159,0,0,1,.224,1.524q0,.112-.007.224c0,.075-.012.154-.021.238H65.084A2.226,2.226,0,0,0,65.811,65.954Zm3.048-2.51a2.9,2.9,0,0,0-.182-.762,1.956,1.956,0,0,0-.378-.615,1.8,1.8,0,0,0-.566-.413,1.749,1.749,0,0,0-.748-.154,1.706,1.706,0,0,0-1.293.538,2.431,2.431,0,0,0-.622,1.405Z" transform="translate(-63.392 -60.116)" fill="#fff"/>
        <path id="Caminho_1557" data-name="Caminho 1557" d="M131.736,67.436a3.66,3.66,0,0,1-1.776.384,3.824,3.824,0,0,1-1.525-.3,3.76,3.76,0,0,1-1.214-.825,3.817,3.817,0,0,1-1.093-2.706,3.884,3.884,0,0,1,1.093-2.727,3.794,3.794,0,0,1,2.753-1.147,3.849,3.849,0,0,1,1.741.349,4.118,4.118,0,0,1,1.21.923l-1.049,1.133a3.927,3.927,0,0,0-.832-.664,2.109,2.109,0,0,0-1.084-.259,1.938,1.938,0,0,0-.853.189,2.069,2.069,0,0,0-.671.51,2.441,2.441,0,0,0-.441.748,2.574,2.574,0,0,0-.161.916A2.671,2.671,0,0,0,128,64.9a2.285,2.285,0,0,0,.455.755,2.185,2.185,0,0,0,.7.51,2.252,2.252,0,0,0,1.951-.07,4.059,4.059,0,0,0,.86-.664l1.021,1.007A4.646,4.646,0,0,1,131.736,67.436Z" transform="translate(-117.683 -60.116)" fill="#fff"/>
        <path id="Caminho_1558" data-name="Caminho 1558" d="M191.454,65.458a3.834,3.834,0,0,1-2.077,2.055,4.2,4.2,0,0,1-3.139.007,3.787,3.787,0,0,1-2.063-2.042,3.916,3.916,0,0,1,.007-2.992,3.858,3.858,0,0,1,.825-1.23,3.914,3.914,0,0,1,1.245-.832,3.966,3.966,0,0,1,1.573-.308,4.043,4.043,0,0,1,1.573.3,3.8,3.8,0,0,1,2.356,3.545A3.75,3.75,0,0,1,191.454,65.458Zm-1.572-2.391a2.4,2.4,0,0,0-.466-.762,2.18,2.18,0,0,0-.709-.517,2.187,2.187,0,0,0-2.522.51,2.212,2.212,0,0,0-.445.748,2.7,2.7,0,0,0-.153.916,2.6,2.6,0,0,0,.167.93,2.3,2.3,0,0,0,.466.762,2.23,2.23,0,0,0,.709.51,2.119,2.119,0,0,0,.9.189,2.186,2.186,0,0,0,.924-.189,2.149,2.149,0,0,0,.7-.51,2.209,2.209,0,0,0,.445-.748,2.7,2.7,0,0,0,.153-.916A2.552,2.552,0,0,0,189.882,63.066Z" transform="translate(-167.662 -60.116)" fill="#fff"/>
        <path id="Caminho_1559" data-name="Caminho 1559" d="M256.842,67.653h-1.706V60.27h1.706v1.158a4.142,4.142,0,0,1,.4-.5,2.6,2.6,0,0,1,.5-.416,2.552,2.552,0,0,1,.627-.289,2.609,2.609,0,0,1,.774-.106,2.458,2.458,0,0,1,1.938.769,3,3,0,0,1,.683,2.07v4.7h-1.706V63.468a1.961,1.961,0,0,0-.409-1.332,1.456,1.456,0,0,0-1.157-.467,1.57,1.57,0,0,0-1.192.481,1.876,1.876,0,0,0-.458,1.346Z" transform="translate(-229.323 -60.116)" fill="#fff"/>
        <path id="Caminho_1560" data-name="Caminho 1560" d="M318.069,61.259h1.776l-3.02,7.439H315.3l-3.034-7.439h1.818l1.986,5.425Z" transform="translate(-278.762 -61.105)" fill="#fff"/>
        <path id="Caminho_1561" data-name="Caminho 1561" d="M375.552,65.954a2.1,2.1,0,0,0,1.4.483,2.474,2.474,0,0,0,1.091-.224,3.548,3.548,0,0,0,.909-.657l.993.881a4.091,4.091,0,0,1-1.266,1.007,3.8,3.8,0,0,1-1.755.377,3.943,3.943,0,0,1-1.489-.28,3.574,3.574,0,0,1-2.007-1.993,4.06,4.06,0,0,1-.294-1.573,4.176,4.176,0,0,1,.266-1.5,3.756,3.756,0,0,1,.748-1.223,3.613,3.613,0,0,1,1.14-.832,3.39,3.39,0,0,1,1.454-.308,3.508,3.508,0,0,1,1.545.322,3.183,3.183,0,0,1,1.1.867,3.764,3.764,0,0,1,.664,1.272,5.159,5.159,0,0,1,.224,1.524q0,.112-.007.224c0,.075-.012.154-.021.238h-5.426A2.227,2.227,0,0,0,375.552,65.954Zm3.048-2.51a2.9,2.9,0,0,0-.182-.762,1.953,1.953,0,0,0-.377-.615,1.8,1.8,0,0,0-.566-.413,1.749,1.749,0,0,0-.748-.154,1.706,1.706,0,0,0-1.293.538,2.43,2.43,0,0,0-.622,1.405Z" transform="translate(-331.436 -60.116)" fill="#fff"/>
        <path id="Caminho_1562" data-name="Caminho 1562" d="M438.98,67.722h-1.706V60.339h1.706V62a3.247,3.247,0,0,1,.993-1.342,2.378,2.378,0,0,1,1.622-.461v1.79h-.1a2.768,2.768,0,0,0-1.021.182,2.139,2.139,0,0,0-.8.545,2.465,2.465,0,0,0-.517.916,4.093,4.093,0,0,0-.182,1.279Z" transform="translate(-386.942 -60.185)" fill="#fff"/>
        <path id="Caminho_1563" data-name="Caminho 1563" d="M481.369,66.672a1.993,1.993,0,0,1-.58.72,2.6,2.6,0,0,1-.874.433,3.831,3.831,0,0,1-1.077.147,4.971,4.971,0,0,1-1.615-.28,5.171,5.171,0,0,1-1.517-.825l.755-1.146a4.9,4.9,0,0,0,1.224.678,3.432,3.432,0,0,0,1.2.231,1.426,1.426,0,0,0,.846-.217.68.68,0,0,0,.3-.58v-.028a.538.538,0,0,0-.133-.363,1.2,1.2,0,0,0-.363-.273,3.2,3.2,0,0,0-.531-.21l-.622-.189q-.406-.126-.818-.28a2.959,2.959,0,0,1-.741-.4,2.015,2.015,0,0,1-.538-.6,1.726,1.726,0,0,1-.21-.888v-.028a2.124,2.124,0,0,1,.2-.937,2.09,2.09,0,0,1,.559-.713,2.5,2.5,0,0,1,.839-.447,3.363,3.363,0,0,1,1.028-.154,4.7,4.7,0,0,1,1.412.224,5.064,5.064,0,0,1,1.3.615l-.671,1.2a5.661,5.661,0,0,0-1.077-.51,3.1,3.1,0,0,0-1.007-.189,1.224,1.224,0,0,0-.762.21.644.644,0,0,0-.273.531v.028a.481.481,0,0,0,.14.343,1.375,1.375,0,0,0,.37.266,4.174,4.174,0,0,0,.531.224q.3.1.622.2.405.126.811.294a3.42,3.42,0,0,1,.734.413,2.054,2.054,0,0,1,.538.594,1.63,1.63,0,0,1,.21.853v.028A2.319,2.319,0,0,1,481.369,66.672Z" transform="translate(-420.2 -60.296)" fill="#fff"/>
        <path id="Caminho_1564" data-name="Caminho 1564" d="M529.906,65.954a2.1,2.1,0,0,0,1.4.483,2.474,2.474,0,0,0,1.091-.224,3.546,3.546,0,0,0,.909-.657l.993.881a4.089,4.089,0,0,1-1.266,1.007,3.8,3.8,0,0,1-1.755.377,3.942,3.942,0,0,1-1.489-.28,3.574,3.574,0,0,1-2.007-1.993,4.06,4.06,0,0,1-.294-1.573,4.174,4.174,0,0,1,.266-1.5,3.755,3.755,0,0,1,.748-1.223,3.613,3.613,0,0,1,1.14-.832,3.39,3.39,0,0,1,1.454-.308,3.508,3.508,0,0,1,1.545.322,3.182,3.182,0,0,1,1.1.867,3.763,3.763,0,0,1,.664,1.272,5.156,5.156,0,0,1,.224,1.524q0,.112-.007.224c0,.075-.012.154-.021.238h-5.426A2.226,2.226,0,0,0,529.906,65.954Zm3.048-2.51a2.9,2.9,0,0,0-.182-.762,1.955,1.955,0,0,0-.378-.615,1.8,1.8,0,0,0-.566-.413,1.75,1.75,0,0,0-.748-.154,1.706,1.706,0,0,0-1.293.538,2.431,2.431,0,0,0-.622,1.405Z" transform="translate(-465.01 -60.116)" fill="#fff"/>
      </g>
      <g id="Grupo_716" data-name="Grupo 716" transform="translate(13.711 24.313)">
        <path id="Caminho_1565" data-name="Caminho 1565" d="M68.688,150.962v-1.221a4.733,4.733,0,0,1-.417.517,2.853,2.853,0,0,1-.511.434,2.373,2.373,0,0,1-.628.294,2.629,2.629,0,0,1-.769.106,2.8,2.8,0,0,1-1.068-.211,2.846,2.846,0,0,1-.928-.617,3,3,0,0,1-.658-.992,3.758,3.758,0,0,1,0-2.677,3.008,3.008,0,0,1,.658-.992,2.929,2.929,0,0,1,.928-.622,2.732,2.732,0,0,1,1.068-.217,2.691,2.691,0,0,1,.775.106,2.615,2.615,0,0,1,.634.282,2.748,2.748,0,0,1,.511.411,3.694,3.694,0,0,1,.405.493v-3.663h.9v8.571Zm-.147-4a2.216,2.216,0,0,0-.493-.736,2.312,2.312,0,0,0-.7-.473,2.042,2.042,0,0,0-.816-.17,2.189,2.189,0,0,0-.834.158,1.949,1.949,0,0,0-.675.456,2.179,2.179,0,0,0-.458.736,2.7,2.7,0,0,0-.17.987,2.625,2.625,0,0,0,.17.97,2.274,2.274,0,0,0,.464.742,2,2,0,0,0,.681.473,2.092,2.092,0,0,0,.822.163,2.04,2.04,0,0,0,.816-.169,2.308,2.308,0,0,0,.7-.473,2.2,2.2,0,0,0,.493-.742,2.491,2.491,0,0,0,.182-.964A2.447,2.447,0,0,0,68.541,146.963Z" transform="translate(-63.463 -142.391)" fill="#fff"/>
        <path id="Caminho_1566" data-name="Caminho 1566" d="M122.6,144.7v-1h1.033v1Zm.059,7.4v-6.07h.9v6.07Z" transform="translate(-114.64 -143.522)" fill="#fff"/>
        <path id="Caminho_1567" data-name="Caminho 1567" d="M147.051,166.442a2.432,2.432,0,0,1-.622.922,2.663,2.663,0,0,1-.974.558,4.058,4.058,0,0,1-1.274.188,4.96,4.96,0,0,1-1.456-.211,4.679,4.679,0,0,1-1.3-.634l.411-.7a4.384,4.384,0,0,0,1.1.575,3.736,3.736,0,0,0,1.233.2,2.3,2.3,0,0,0,1.609-.546,2.076,2.076,0,0,0,.6-1.614v-.716a3.84,3.84,0,0,1-.975.9,2.521,2.521,0,0,1-1.409.376,2.972,2.972,0,0,1-1.063-.194,2.753,2.753,0,0,1-1.55-1.462,2.858,2.858,0,0,1-.241-1.2,2.9,2.9,0,0,1,.241-1.2,2.759,2.759,0,0,1,.64-.9,2.834,2.834,0,0,1,.916-.569,2.978,2.978,0,0,1,1.837-.1,2.822,2.822,0,0,1,.646.264,2.719,2.719,0,0,1,.522.387,3.962,3.962,0,0,1,.423.47v-1.092h.9v5.013A3.513,3.513,0,0,1,147.051,166.442Zm-.839-4.421a2.062,2.062,0,0,0-.5-.652,2.274,2.274,0,0,0-.71-.417,2.4,2.4,0,0,0-.834-.147,2.337,2.337,0,0,0-.816.141,1.956,1.956,0,0,0-.669.411,1.929,1.929,0,0,0-.452.652,2.131,2.131,0,0,0-.164.851,2.045,2.045,0,0,0,.628,1.509,1.979,1.979,0,0,0,.669.423,2.217,2.217,0,0,0,.8.147,2.393,2.393,0,0,0,.834-.147,2.264,2.264,0,0,0,.71-.417,2.055,2.055,0,0,0,.5-.652,2.022,2.022,0,0,0,0-1.7Z" transform="translate(-130.682 -157.636)" fill="#fff"/>
        <path id="Caminho_1568" data-name="Caminho 1568" d="M200.277,144.7v-1h1.033v1Zm.059,7.4v-6.07h.9v6.07Z" transform="translate(-181.859 -143.522)" fill="#fff"/>
        <path id="Caminho_1569" data-name="Caminho 1569" d="M219.279,153.538a.951.951,0,0,0,.282.787,1.156,1.156,0,0,0,.74.223,1.826,1.826,0,0,0,.881-.211v.775a2.027,2.027,0,0,1-.5.194,2.508,2.508,0,0,1-.593.065,2.392,2.392,0,0,1-.681-.094,1.4,1.4,0,0,1-.546-.3,1.38,1.38,0,0,1-.358-.534,2.15,2.15,0,0,1-.129-.787v-3.663h-.845v-.8h.845v-1.832h.9v1.832H221.2v.8h-1.926Z" transform="translate(-196.789 -146.693)" fill="#fff"/>
        <path id="Caminho_1570" data-name="Caminho 1570" d="M253.375,161.279a5.483,5.483,0,0,0-.863.323l-.27-.74a6.035,6.035,0,0,1,1.021-.37,4.718,4.718,0,0,1,1.186-.135,2.724,2.724,0,0,1,1.914.616,2.361,2.361,0,0,1,.669,1.826v3.71h-.869v-.916a2.97,2.97,0,0,1-.851.728,2.6,2.6,0,0,1-1.344.317,2.965,2.965,0,0,1-.828-.118,2.255,2.255,0,0,1-.728-.358,1.832,1.832,0,0,1-.517-.593,1.7,1.7,0,0,1-.194-.833,1.856,1.856,0,0,1,.188-.851,1.685,1.685,0,0,1,.534-.616,2.564,2.564,0,0,1,.822-.376,4.014,4.014,0,0,1,1.051-.129,6.483,6.483,0,0,1,1.021.07,7.42,7.42,0,0,1,.845.188v-.211a1.56,1.56,0,0,0-.475-1.239,1.957,1.957,0,0,0-1.333-.417A3.637,3.637,0,0,0,253.375,161.279Zm-.289,2.5a1.1,1.1,0,0,0-.456.928,1.05,1.05,0,0,0,.123.517,1.193,1.193,0,0,0,.333.382,1.521,1.521,0,0,0,.486.241,2.013,2.013,0,0,0,.579.082,2.476,2.476,0,0,0,.79-.123,2.1,2.1,0,0,0,.644-.341,1.61,1.61,0,0,0,.433-.517,1.4,1.4,0,0,0,.158-.663v-.587q-.34-.094-.778-.176a5.483,5.483,0,0,0-1-.082A2.164,2.164,0,0,0,253.086,163.775Z" transform="translate(-226.361 -157.939)" fill="#fff"/>
        <path id="Caminho_1571" data-name="Caminho 1571" d="M304.649,150.962v-8.571h.9v8.571Z" transform="translate(-272.18 -142.391)" fill="#fff"/>
      </g>
    </g>
    <g id="Grupo_717" data-name="Grupo 717" transform="translate(1020.392 5044)">
      <path id="Caminho_1495" data-name="Caminho 1495" d="M927.88,5a1.9,1.9,0,0,1-.449.654,2.123,2.123,0,0,1-.692.434,2.388,2.388,0,0,1-.883.158h-1.531V2.136h1.531a2.429,2.429,0,0,1,.883.155,2.085,2.085,0,0,1,.692.431,1.911,1.911,0,0,1,.449.651,2.153,2.153,0,0,1,0,1.622Zm-.7-1.364a1.345,1.345,0,0,0-.288-.445,1.3,1.3,0,0,0-.45-.295,1.57,1.57,0,0,0-.588-.106h-.812v2.8h.812a1.607,1.607,0,0,0,.588-.1,1.287,1.287,0,0,0,.45-.289,1.311,1.311,0,0,0,.288-.442,1.593,1.593,0,0,0,0-1.125Z" transform="translate(-924.324 -2.066)" fill="#fff"/>
      <path id="Caminho_1496" data-name="Caminho 1496" d="M961.808,2.787h-2.324V3.843h2.059v.651h-2.059v1.1h2.353v.651h-3.069V2.136h3.039Z" transform="translate(-954.18 -2.066)" fill="#fff"/>
      <path id="Caminho_1497" data-name="Caminho 1497" d="M987.168,3.039a.431.431,0,0,0,.15.164,1.2,1.2,0,0,0,.3.141q.191.065.485.135a4.635,4.635,0,0,1,.574.182,1.43,1.43,0,0,1,.415.244.96.96,0,0,1,.25.334,1.092,1.092,0,0,1,.085.449,1.214,1.214,0,0,1-.108.522,1.107,1.107,0,0,1-.3.387,1.317,1.317,0,0,1-.461.24,2.024,2.024,0,0,1-.592.082,2.592,2.592,0,0,1-.909-.161,2.479,2.479,0,0,1-.8-.5l.434-.516a2.518,2.518,0,0,0,.6.4,1.663,1.663,0,0,0,.692.138.9.9,0,0,0,.531-.141.445.445,0,0,0,.2-.381.5.5,0,0,0-.038-.2.4.4,0,0,0-.141-.161,1.185,1.185,0,0,0-.282-.138,4.719,4.719,0,0,0-.468-.135,4.93,4.93,0,0,1-.585-.17,1.486,1.486,0,0,1-.429-.235.933.933,0,0,1-.265-.34,1.168,1.168,0,0,1-.091-.487,1.126,1.126,0,0,1,.1-.49,1.151,1.151,0,0,1,.288-.378,1.281,1.281,0,0,1,.441-.243,1.784,1.784,0,0,1,.563-.085,2.356,2.356,0,0,1,.813.132,2.42,2.42,0,0,1,.678.384l-.387.546a2.526,2.526,0,0,0-.558-.314,1.511,1.511,0,0,0-.557-.109.759.759,0,0,0-.493.144.436.436,0,0,0-.176.349A.494.494,0,0,0,987.168,3.039Z" transform="translate(-978.003 -1.684)" fill="#fff"/>
      <path id="Caminho_1498" data-name="Caminho 1498" d="M1019.507,2.787h-2.323V3.843h2.06v.651h-2.06v1.1h2.353v.651h-3.069V2.136h3.039Z" transform="translate(-1004.193 -2.066)" fill="#fff"/>
      <path id="Caminho_1499" data-name="Caminho 1499" d="M1048.842,2.136h.716V6.243h-.6l-2.26-2.922V6.243h-.716V2.136h.668l2.2,2.84Z" transform="translate(-1029.772 -2.066)" fill="#fff"/>
      <path id="Caminho_1500" data-name="Caminho 1500" d="M1081.4,2.136h.78l-1.707,4.137h-.634l-1.707-4.137h.8l1.238,3.157Z" transform="translate(-1057.644 -2.066)" fill="#fff"/>
      <path id="Caminho_1501" data-name="Caminho 1501" d="M1114.686,4.547a2.063,2.063,0,0,1-.446.678,2.141,2.141,0,0,1-1.549.631,2.2,2.2,0,0,1-.869-.167,2.041,2.041,0,0,1-1.115-1.13,2.213,2.213,0,0,1,0-1.643,2.065,2.065,0,0,1,.446-.678,2.139,2.139,0,0,1,1.549-.631,2.2,2.2,0,0,1,.868.167,2.038,2.038,0,0,1,1.115,1.129,2.207,2.207,0,0,1,0,1.643Zm-.7-1.376a1.436,1.436,0,0,0-.287-.466,1.369,1.369,0,0,0-.443-.317,1.419,1.419,0,0,0-1.124,0,1.325,1.325,0,0,0-.437.311,1.423,1.423,0,0,0-.285.463,1.609,1.609,0,0,0,0,1.132,1.432,1.432,0,0,0,.287.467,1.366,1.366,0,0,0,.443.317,1.42,1.42,0,0,0,1.124,0,1.326,1.326,0,0,0,.437-.311,1.427,1.427,0,0,0,.285-.463,1.613,1.613,0,0,0,0-1.132Z" transform="translate(-1085.742 -1.607)" fill="#fff"/>
      <path id="Caminho_1502" data-name="Caminho 1502" d="M1149.354,2.136h.716V5.592h2.159v.651h-2.875Z" transform="translate(-1119.377 -2.066)" fill="#fff"/>
      <path id="Caminho_1503" data-name="Caminho 1503" d="M1172.179,2.136h.78l-1.708,4.137h-.634l-1.708-4.137h.8l1.238,3.157Z" transform="translate(-1136.329 -2.066)" fill="#fff"/>
      <path id="Caminho_1504" data-name="Caminho 1504" d="M1205.612,2.136V6.243h-.716V2.136Z" transform="translate(-1167.52 -2.066)" fill="#fff"/>
      <path id="Caminho_1505" data-name="Caminho 1505" d="M1222.106,5a1.9,1.9,0,0,1-.449.654,2.123,2.123,0,0,1-.692.434,2.388,2.388,0,0,1-.883.158h-1.531V2.136h1.531a2.429,2.429,0,0,1,.883.155,2.086,2.086,0,0,1,.692.431,1.909,1.909,0,0,1,.449.651,2.154,2.154,0,0,1,0,1.622Zm-.7-1.364a1.346,1.346,0,0,0-.288-.445,1.3,1.3,0,0,0-.45-.295,1.568,1.568,0,0,0-.588-.106h-.812v2.8h.812a1.606,1.606,0,0,0,.588-.1,1.286,1.286,0,0,0,.45-.289,1.312,1.312,0,0,0,.288-.442,1.59,1.59,0,0,0,0-1.125Z" transform="translate(-1179.355 -2.066)" fill="#fff"/>
      <path id="Caminho_1506" data-name="Caminho 1506" d="M1255.765,4.547a2.057,2.057,0,0,1-.446.678,2.139,2.139,0,0,1-1.549.631,2.2,2.2,0,0,1-.869-.167,2.039,2.039,0,0,1-1.115-1.13,2.209,2.209,0,0,1,0-1.643,2.062,2.062,0,0,1,.446-.678,2.139,2.139,0,0,1,1.549-.631,2.2,2.2,0,0,1,.868.167,2.038,2.038,0,0,1,1.115,1.129,2.207,2.207,0,0,1,0,1.643Zm-.7-1.376a1.441,1.441,0,0,0-.287-.466,1.374,1.374,0,0,0-.443-.317,1.419,1.419,0,0,0-1.124,0,1.324,1.324,0,0,0-.437.311,1.427,1.427,0,0,0-.285.463,1.609,1.609,0,0,0,0,1.132,1.436,1.436,0,0,0,.287.467,1.369,1.369,0,0,0,.443.317,1.42,1.42,0,0,0,1.124,0,1.325,1.325,0,0,0,.437-.311,1.427,1.427,0,0,0,.285-.463,1.613,1.613,0,0,0,0-1.132Z" transform="translate(-1208.027 -1.607)" fill="#fff"/>
      <path id="Caminho_1507" data-name="Caminho 1507" d="M1306.7,4.125a1.257,1.257,0,0,1-.353.44,1.571,1.571,0,0,1-.523.267,2.2,2.2,0,0,1-.641.091h-.818v1.32h-.716V2.136h1.62a2.041,2.041,0,0,1,.648.1,1.38,1.38,0,0,1,.493.279,1.231,1.231,0,0,1,.311.434,1.429,1.429,0,0,1,.108.569A1.372,1.372,0,0,1,1306.7,4.125Zm-.845-1.152a1.037,1.037,0,0,0-.648-.185h-.842V4.272h.842a.971.971,0,0,0,.651-.2.673.673,0,0,0,.239-.539A.659.659,0,0,0,1305.85,2.973Z" transform="translate(-1253.115 -2.066)" fill="#fff"/>
      <path id="Caminho_1508" data-name="Caminho 1508" d="M1335.839,4.547a2.057,2.057,0,0,1-.446.678,2.14,2.14,0,0,1-1.549.631,2.2,2.2,0,0,1-.868-.167,2.039,2.039,0,0,1-1.115-1.13,2.209,2.209,0,0,1,0-1.643,2.066,2.066,0,0,1,.446-.678,2.14,2.14,0,0,1,1.549-.631,2.2,2.2,0,0,1,.868.167,2.038,2.038,0,0,1,1.115,1.129,2.207,2.207,0,0,1,0,1.643Zm-.7-1.376a1.438,1.438,0,0,0-.287-.466,1.374,1.374,0,0,0-.443-.317,1.419,1.419,0,0,0-1.124,0,1.325,1.325,0,0,0-.437.311,1.425,1.425,0,0,0-.284.463,1.611,1.611,0,0,0,0,1.132,1.435,1.435,0,0,0,.287.467,1.369,1.369,0,0,0,.443.317,1.42,1.42,0,0,0,1.124,0,1.324,1.324,0,0,0,.437-.311,1.429,1.429,0,0,0,.285-.463,1.611,1.611,0,0,0,0-1.132Z" transform="translate(-1277.435 -1.607)" fill="#fff"/>
      <path id="Caminho_1509" data-name="Caminho 1509" d="M1373.141,6.243l-1.012-1.432h-.906V6.243h-.716V2.136h1.831a2.088,2.088,0,0,1,.637.091,1.384,1.384,0,0,1,.481.258,1.113,1.113,0,0,1,.3.411,1.35,1.35,0,0,1,.106.543,1.348,1.348,0,0,1-.073.461,1.187,1.187,0,0,1-.2.358,1.212,1.212,0,0,1-.308.264,1.517,1.517,0,0,1-.4.167l1.109,1.555Zm-.235-3.282a1,1,0,0,0-.63-.174h-1.053V4.172h1.059a.943.943,0,0,0,.618-.188.622.622,0,0,0,.23-.507A.613.613,0,0,0,1372.906,2.961Z" transform="translate(-1311.07 -2.066)" fill="#fff"/>
    </g>
  </g>
</svg>
