<svg xmlns="http://www.w3.org/2000/svg" width="19.158" height="18.31" viewBox="0 0 19.158 18.31">
  <g id="linkedin-letters_1_" data-name="linkedin-letters (1)" transform="translate(0 -9.708)">
    <g id="Grupo_1107" data-name="Grupo 1107" transform="translate(0 9.708)">
      <rect id="Retângulo_1509" data-name="Retângulo 1509" width="4.116" height="12.36" transform="translate(0.237 5.949)" fill="#fff"/>
      <path id="Caminho_1701" data-name="Caminho 1701" d="M162.835,140.747a4.43,4.43,0,0,0-3.43-1.416,4.943,4.943,0,0,0-1.428.193,3.24,3.24,0,0,0-1.085.543,4.647,4.647,0,0,0-1.191,1.308v-1.758h-4.1l.013.6q.013.6.013,3.692t-.025,8.07h4.1v-6.9a3.012,3.012,0,0,1,.137-1.01A2.649,2.649,0,0,1,156.63,143a2.019,2.019,0,0,1,1.316-.431,1.775,1.775,0,0,1,1.578.742,3.609,3.609,0,0,1,.505,2.052v6.61h4.1v-7.084A5.938,5.938,0,0,0,162.835,140.747Z" transform="translate(-144.974 -133.668)" fill="#fff"/>
      <path id="Caminho_1702" data-name="Caminho 1702" d="M2.32,9.708a2.348,2.348,0,0,0-1.678.6A2.008,2.008,0,0,0,0,11.841a2.044,2.044,0,0,0,.624,1.522,2.251,2.251,0,0,0,1.646.611h.025a2.35,2.35,0,0,0,1.69-.611,1.974,1.974,0,0,0,.63-1.522,2.08,2.08,0,0,0-.636-1.528A2.281,2.281,0,0,0,2.32,9.708Z" transform="translate(0 -9.708)" fill="#fff"/>
    </g>
  </g>
</svg>
