<svg xmlns="http://www.w3.org/2000/svg" width="45" height="45" viewBox="0 0 45 45">
  <g id="Grupo_932" data-name="Grupo 932" transform="translate(-115 -1630)">
    <g id="Retângulo_1261" data-name="Retângulo 1261" transform="translate(115 1630)" fill="none" stroke="#009b7b" stroke-width="1.5">
      <rect width="45" height="45" rx="4" stroke="none"/>
      <rect x="0.75" y="0.75" width="43.5" height="43.5" rx="3.25" fill="none"/>
    </g>
    <g id="list_3_" data-name="list (3)" transform="translate(128 1642.71)">
      <g id="Grupo_921" data-name="Grupo 921">
        <path id="Caminho_1646" data-name="Caminho 1646" d="M2.074,33.4A2.076,2.076,0,1,0,0,31.324,2.076,2.076,0,0,0,2.074,33.4Zm0-3.187a1.11,1.11,0,1,1-1.11,1.11A1.111,1.111,0,0,1,2.074,30.214Z" transform="translate(0 -29.25)" fill="#009b7b" stroke="#009b7b" stroke-width="0.1"/>
        <path id="Caminho_1647" data-name="Caminho 1647" d="M2.074,196.3A2.074,2.074,0,1,0,0,194.224,2.076,2.076,0,0,0,2.074,196.3Zm0-3.183a1.11,1.11,0,1,1-1.11,1.11A1.111,1.111,0,0,1,2.074,193.114Z" transform="translate(0 -185.74)" fill="#009b7b" stroke="#009b7b" stroke-width="0.1"/>
        <path id="Caminho_1648" data-name="Caminho 1648" d="M2.074,359.2A2.074,2.074,0,1,0,0,357.124,2.076,2.076,0,0,0,2.074,359.2Zm0-3.187a1.11,1.11,0,1,1-1.11,1.11A1.111,1.111,0,0,1,2.074,356.01Z" transform="translate(0 -342.231)" fill="#009b7b" stroke="#009b7b" stroke-width="0.1"/>
        <path id="Caminho_1649" data-name="Caminho 1649" d="M164.084,70.618h11.863a.484.484,0,1,0,0-.968H164.084a.484.484,0,1,0,0,.968Z" transform="translate(-157.163 -68.06)" fill="#009b7b" stroke="#009b7b" stroke-width="0.1"/>
        <path id="Caminho_1650" data-name="Caminho 1650" d="M164.084,233.518h11.863a.484.484,0,1,0,0-.968H164.084a.484.484,0,1,0,0,.968Z" transform="translate(-157.163 -224.551)" fill="#009b7b" stroke="#009b7b" stroke-width="0.1"/>
        <path id="Caminho_1651" data-name="Caminho 1651" d="M164.084,396.318h11.863a.484.484,0,1,0,0-.968H164.084a.484.484,0,1,0,0,.968Z" transform="translate(-157.163 -380.945)" fill="#009b7b" stroke="#009b7b" stroke-width="0.1"/>
      </g>
    </g>
    <g id="Grupo_925" data-name="Grupo 925" transform="translate(138.322 1649.495)">
      <g id="Caminho_1655" data-name="Caminho 1655" transform="translate(0 0)" fill="#fff">
        <path d="M 7.231593608856201 13.96318340301514 C 3.519783496856689 13.96318340301514 0.5000036358833313 10.94340324401855 0.5000036358833313 7.231593608856201 C 0.5000036358833313 3.519783496856689 3.519783496856689 0.5000036358833313 7.231593608856201 0.5000036358833313 C 10.94340324401855 0.5000036358833313 13.96318340301514 3.519783496856689 13.96318340301514 7.231593608856201 C 13.96318340301514 10.94340324401855 10.94340324401855 13.96318340301514 7.231593608856201 13.96318340301514 Z" stroke="none"/>
        <path d="M 7.231593608856201 1.000003814697266 C 3.795483589172363 1.000003814697266 1.000003814697266 3.795483589172363 1.000003814697266 7.231593608856201 C 1.000003814697266 10.66770362854004 3.795483589172363 13.46318340301514 7.231593608856201 13.46318340301514 C 10.66770362854004 13.46318340301514 13.46318340301514 10.66770362854004 13.46318340301514 7.231593608856201 C 13.46318340301514 3.795483589172363 10.66770362854004 1.000003814697266 7.231593608856201 1.000003814697266 M 7.231593608856201 3.814697265625e-06 C 11.22549343109131 3.814697265625e-06 14.46318340301514 3.237693786621094 14.46318340301514 7.231593608856201 C 14.46318340301514 11.22549343109131 11.22549343109131 14.46318340301514 7.231593608856201 14.46318340301514 C 3.237693786621094 14.46318340301514 3.814697265625e-06 11.22549343109131 3.814697265625e-06 7.231593608856201 C 3.814697265625e-06 3.237693786621094 3.237693786621094 3.814697265625e-06 7.231593608856201 3.814697265625e-06 Z" stroke="none" fill="#009b7b"/>
      </g>
      <path id="Caminho_1654" data-name="Caminho 1654" d="M6.442-3.092H4.049V-.675H2.721V-3.092H.341V-4.348h2.38V-6.776H4.049v2.428H6.442Z" transform="translate(4.061 10.848)" fill="#009b7b"/>
    </g>
  </g>
</svg>
