<svg xmlns="http://www.w3.org/2000/svg" width="21.388" height="18.832" viewBox="0 0 21.388 18.832"><g transform="translate(184)"><g transform="translate(-184)"><path d="M2.3,33.858A2.3,2.3,0,1,0,0,31.552,2.3,2.3,0,0,0,2.3,33.858Zm0-3.538A1.232,1.232,0,1,1,1.07,31.552,1.233,1.233,0,0,1,2.3,30.32Z" transform="translate(0 -29.25)" fill="#009b7b"/><path d="M2.3,196.753a2.3,2.3,0,1,0-2.3-2.3A2.3,2.3,0,0,0,2.3,196.753Zm0-3.533a1.232,1.232,0,1,1-1.232,1.232A1.233,1.233,0,0,1,2.3,193.22Z" transform="translate(0 -185.035)" fill="#009b7b"/><path d="M2.3,359.653a2.3,2.3,0,1,0-2.3-2.3A2.3,2.3,0,0,0,2.3,359.653Zm0-3.538a1.232,1.232,0,1,1-1.232,1.232A1.233,1.233,0,0,1,2.3,356.116Z" transform="translate(0 -340.821)" fill="#009b7b"/><path d="M164.137,70.724h13.168a.537.537,0,1,0,0-1.074H164.137a.537.537,0,1,0,0,1.074Z" transform="translate(-156.455 -67.886)" fill="#009b7b"/><path d="M164.137,233.624h13.168a.537.537,0,0,0,0-1.074H164.137a.537.537,0,0,0,0,1.074Z" transform="translate(-156.455 -223.671)" fill="#009b7b"/><path d="M164.137,396.424h13.168a.537.537,0,1,0,0-1.074H164.137a.537.537,0,1,0,0,1.074Z" transform="translate(-156.455 -379.361)" fill="#009b7b"/></g></g></svg>