<svg xmlns="http://www.w3.org/2000/svg" width="14.052" height="17.2" viewBox="0 0 14.052 17.2"><g transform="translate(-4.9 0.1)"><path d="M16.963,6.332V4.565A4.824,4.824,0,0,0,11.926,0,4.824,4.824,0,0,0,6.889,4.565V6.332A2.278,2.278,0,0,0,5,8.572v6.152A2.278,2.278,0,0,0,7.276,17h9.3a2.278,2.278,0,0,0,2.276-2.276V8.572A2.278,2.278,0,0,0,16.963,6.332ZM7.519,4.565A4.2,4.2,0,0,1,11.926.63a4.2,4.2,0,0,1,4.407,3.935V6.3H7.519Zm10.7,10.159a1.648,1.648,0,0,1-1.646,1.646h-9.3A1.648,1.648,0,0,1,5.63,14.724V8.572A1.648,1.648,0,0,1,7.276,6.926h9.3a1.648,1.648,0,0,1,1.646,1.646Z" transform="translate(0 0)" fill="#fff" stroke="#fff" stroke-width="0.2"/><path d="M24.259,28A1.261,1.261,0,0,0,23,29.259v1.889a1.259,1.259,0,1,0,2.519,0V29.259A1.261,1.261,0,0,0,24.259,28Zm.63,3.148a.63.63,0,1,1-1.259,0V29.259a.63.63,0,1,1,1.259,0Z" transform="translate(-12.333 -19.185)" fill="#fff" stroke="#fff" stroke-width="0.2"/></g></svg>