<svg xmlns="http://www.w3.org/2000/svg" width="20.847" height="21.374" viewBox="0 0 20.847 21.374"><path d="M-4.928-42.494a7.46,7.46,0,0,0-7.46-7.486,7.471,7.471,0,0,0-7.473,7.486,7.463,7.463,0,0,0,7.473,7.446,7.472,7.472,0,0,0,4.859-1.786l5.4,5.789.722-.722-5.4-5.789A7.409,7.409,0,0,0-4.928-42.494Zm-4.951,5.91a6.3,6.3,0,0,1-2.508.512,6.477,6.477,0,0,1-2.508-.5,6.4,6.4,0,0,1-2.049-1.379,6.492,6.492,0,0,1-1.379-2.036,6.349,6.349,0,0,1-.512-2.508,6.319,6.319,0,0,1,.512-2.522,6.458,6.458,0,0,1,1.379-2.062,6.492,6.492,0,0,1,2.036-1.379,6.591,6.591,0,0,1,2.522-.5,6.412,6.412,0,0,1,2.522.512A6.278,6.278,0,0,1-7.83-47.064,6.458,6.458,0,0,1-6.451-45a6.46,6.46,0,0,1,.5,2.5,6.183,6.183,0,0,1-.5,2.5,6.105,6.105,0,0,1-1.366,2.036A6.286,6.286,0,0,1-9.879-36.584Z" transform="translate(20.86 50.98)" fill="#009b7b" stroke="#009b7b" stroke-width="2"/></svg>