<svg xmlns="http://www.w3.org/2000/svg" width="174.516" height="23.509" viewBox="0 0 174.516 23.509"><path d="M576.943-218.928a8.951,8.951,0,0,1,3,.5,6.154,6.154,0,0,1,2.358,1.452,5.283,5.283,0,0,1,1.328,2.216,7.448,7.448,0,0,1,.285,2.722,8.874,8.874,0,0,1-.616,2.7,7.466,7.466,0,0,1-1.614,2.4,6.9,6.9,0,0,1-2.709,1.678,10.236,10.236,0,0,1-3.368.556,9.606,9.606,0,0,1-3.073-.488,6.017,6.017,0,0,1-2.385-1.434,5.446,5.446,0,0,1-1.343-2.252,7.429,7.429,0,0,1-.309-2.754,8.186,8.186,0,0,1,.685-2.758,7.061,7.061,0,0,1,1.72-2.356,7.754,7.754,0,0,1,2.739-1.61A9.915,9.915,0,0,1,576.943-218.928Zm17.185,0a8.953,8.953,0,0,1,3,.5,6.153,6.153,0,0,1,2.358,1.452,5.286,5.286,0,0,1,1.328,2.216,7.446,7.446,0,0,1,.285,2.722,8.866,8.866,0,0,1-.615,2.7,7.465,7.465,0,0,1-1.614,2.4,6.9,6.9,0,0,1-2.709,1.678,10.236,10.236,0,0,1-3.368.556,9.608,9.608,0,0,1-3.073-.488,6.018,6.018,0,0,1-2.385-1.434,5.448,5.448,0,0,1-1.343-2.252,7.43,7.43,0,0,1-.309-2.754,8.184,8.184,0,0,1,.685-2.759,7.062,7.062,0,0,1,1.72-2.356,7.753,7.753,0,0,1,2.739-1.61A9.915,9.915,0,0,1,594.127-218.928Zm-.363,3.907a2.672,2.672,0,0,0-1.484.434,2.987,2.987,0,0,0-1.049,1.275,5.248,5.248,0,0,0-.455,1.831,3.047,3.047,0,0,0,.542,2.225,2.115,2.115,0,0,0,1.7.773,2.625,2.625,0,0,0,1.472-.443,2.99,2.99,0,0,0,1.051-1.307,5.458,5.458,0,0,0,.457-1.859,4,4,0,0,0-.152-1.479,2,2,0,0,0-.759-1.054A2.2,2.2,0,0,0,593.765-215.021Zm-40.031,10.1c.186-1.862.314-3.353.386-4.484q.164-2.5.309-6.88t.145-5.9v-1.51q4,.028,7.448.028,3.476,0,6.68-.028-.211,3.152-.214,4.122l-1.159-.042-.932-.014-.931-.014h-2.622c-.3,0-1.186.009-2.649.028l-.1,3.236,1.927.028h2.15c.622,0,1.568-.014,2.845-.042q-.143,2.6-.145,4.08c-1.427-.047-2.481-.07-3.172-.07q-1.752,0-3.822.07l-.145,4.943-.018,1.839v.605l-2.858-.028Q556.518-204.951,553.734-204.922Zm65.938-.521c-.219-1.284-.158-2.5-.409-3.855a19.748,19.748,0,0,0,2.117.735,6.082,6.082,0,0,0,1.608.242,3.384,3.384,0,0,0,.971-.114.973.973,0,0,0,.522-.334.674.674,0,0,0,.137-.449.789.789,0,0,0-.164-.409,3.024,3.024,0,0,0-.627-.546q-1.071-.772-1.889-1.408a8.482,8.482,0,0,1-1.244-1.122,4.121,4.121,0,0,1-.677-1.056,3.638,3.638,0,0,1-.3-1.171,3.466,3.466,0,0,1,.425-2,2.978,2.978,0,0,1,1.619-1.347,7.883,7.883,0,0,1,2.751-.418,29.824,29.824,0,0,1,4.722.475l.358,3.546a8.691,8.691,0,0,0-3.085-.563,3.435,3.435,0,0,0-1.394.207.616.616,0,0,0-.383.643.755.755,0,0,0,.072.268.953.953,0,0,0,.2.273,3.155,3.155,0,0,0,.344.291c.135.1.462.326.985.686s.932.66,1.23.893a7.465,7.465,0,0,1,1.141,1.047,4.292,4.292,0,0,1,.637,1.034,3.634,3.634,0,0,1,.283,1.153,3.237,3.237,0,0,1-.29,1.681,3.046,3.046,0,0,1-1.185,1.285,5.376,5.376,0,0,1-1.805.717,10.387,10.387,0,0,1-2.05.2,16,16,0,0,1-1.81-.128C621.755-205.076,620.648-205.227,619.672-205.443Zm-2.418.413c-1.69-.033-3.374-.031-5.064,0l.029-1.74c-1.649,1.627-2.676,1.939-5.038,1.792-3.977-.249-4.4-3.515-4.4-6.663,0-5.322,4.526-9.67,10.149-6.214.065-1.018-.048-2.563-.027-4.394,1.7.029,3.4.035,5.106,0A167.673,167.673,0,0,0,617.254-205.03Zm-4.9-10.007a3.666,3.666,0,0,0-4.762,3.823c0,2.956,3.278,3.594,4.472,1.066C612.177-210.382,612.345-214.578,612.357-215.038Zm-35.777.017a2.672,2.672,0,0,0-1.484.434,2.989,2.989,0,0,0-1.049,1.275,5.256,5.256,0,0,0-.455,1.831,3.047,3.047,0,0,0,.542,2.225,2.114,2.114,0,0,0,1.7.773,2.626,2.626,0,0,0,1.472-.443,2.993,2.993,0,0,0,1.051-1.307,5.464,5.464,0,0,0,.457-1.859,4,4,0,0,0-.152-1.479,2,2,0,0,0-.759-1.054,2.194,2.194,0,0,0-1.326-.4" transform="translate(-462.074 227.825)" fill="#e51636"/><path d="M34.121-217.792a13.871,13.871,0,0,0-2.2-.562,12.08,12.08,0,0,0-2.12-.179A6.2,6.2,0,0,0,25.337-217a5.643,5.643,0,0,0-1.583,4.239,4.693,4.693,0,0,0,1.4,3.754,6.558,6.558,0,0,0,4.367,1.2,14.4,14.4,0,0,0,2.094-.128,17.543,17.543,0,0,0,2.2-.434L33.2-204.1c-.792.179-1.634.307-2.452.409a21.1,21.1,0,0,1-2.554.153c-3.345,0-5.874-.792-7.636-2.324-1.737-1.558-2.6-3.831-2.6-6.793a9.427,9.427,0,0,1,2.809-7.278q2.835-2.6,7.968-2.6a21.427,21.427,0,0,1,2.554.153,22.987,22.987,0,0,1,2.6.409Zm73.6-3.218c-.281,3.5-.511,6.665-.638,9.5-.153,2.809-.23,5.235-.23,7.253v.536h-5.184c.255-3.958.485-7.329.613-10.087.153-2.758.23-5.159.281-7.2ZM92.731-203.645c-.357.077-.715.128-1.073.179-.332.025-.664.051-.97.051a4.762,4.762,0,0,1-3.141-.97,3.486,3.486,0,0,1-1.124-2.707,3.828,3.828,0,0,1,1.1-2.86,7.884,7.884,0,0,1,3.626-1.609,5.3,5.3,0,0,1,.664-.153c1.941-.409,2.886-.894,2.886-1.456a.633.633,0,0,0-.357-.638,2.241,2.241,0,0,0-1.175-.2,10.011,10.011,0,0,0-2.375.281,13.263,13.263,0,0,0-2.477.792l.562-3.805a17.349,17.349,0,0,1,2.452-.485,17.949,17.949,0,0,1,2.681-.179,8.163,8.163,0,0,1,4.188.843,2.808,2.808,0,0,1,1.328,2.579v.638c0,.23-.026.485-.051.741l-.281,6.665a3.622,3.622,0,0,0-.026.587v1.634H94.161q.115-1.379.153-2.145c.026-.511.077-.894.077-1.1l.1-2.324c-.153.051-.358.128-.562.179a5.7,5.7,0,0,1-.817.23l-1.047.255a2.508,2.508,0,0,0-1.047.511,1.144,1.144,0,0,0-.358.817.964.964,0,0,0,.332.741,1.255,1.255,0,0,0,.894.281,3.264,3.264,0,0,0,.664-.051c.281-.026.587-.1.97-.179Zm-5.72-9.628h-.281a1.944,1.944,0,0,0-.434-.026,3.876,3.876,0,0,0-2.069.511,2.771,2.771,0,0,0-1.149,1.507,9.1,9.1,0,0,0-.383,2.043c-.077.919-.128,2.758-.179,5.516H77.408q.307-2.988.46-5.976c.1-1.992.179-3.984.179-6v-1.328h4.469l-.1,1.864a4.73,4.73,0,0,1,1.532-1.686,4.022,4.022,0,0,1,2.12-.536c.179,0,.409,0,.741.026a.094.094,0,0,0,.077.026Zm-14.276,3.218a1.484,1.484,0,0,1-.026.255v.383a3.168,3.168,0,0,0,.332,1.762,1.412,1.412,0,0,0,1.226.485,4.418,4.418,0,0,0,.766-.1c.179-.026.306-.051.383-.051l-.306,3.7c-.409.077-.843.153-1.3.2-.46.026-.919.051-1.43.051a5.04,5.04,0,0,1-3.473-1.021,4.221,4.221,0,0,1-1.124-3.192v-.434l.281-5.593h-1.89l.153-3.422h2.094l.1-2.12,4.648-1.047-.179,3.167h2.937l-.153,3.422h-2.86Zm-22.7,6.333c.2-2.069.358-4.214.485-6.41q.153-3.333.153-6.9H55.5v1.66a5.383,5.383,0,0,1,1.915-1.558,5.8,5.8,0,0,1,2.528-.485,5.669,5.669,0,0,1,3.78,1.022,4.2,4.2,0,0,1,1.175,3.294c0,.536-.077,1.839-.179,3.933-.1,2.068-.179,3.882-.2,5.44h-4.98c.1-1.379.179-2.63.255-3.78.051-1.149.077-2.069.077-2.733a5.493,5.493,0,0,0-.409-2.579,1.411,1.411,0,0,0-1.379-.715,2.309,2.309,0,0,0-2.273,1.839q-.651,1.8-.69,7.968Zm-9.245-8.325h3.4v-.128a2.918,2.918,0,0,0-.383-1.634,1.278,1.278,0,0,0-1.1-.562,1.619,1.619,0,0,0-1.277.613A3.388,3.388,0,0,0,40.787-212.047Zm6.18,8.147c-.817.179-1.609.306-2.375.409-.766.077-1.507.128-2.2.128a7.139,7.139,0,0,1-5.133-1.66,6.108,6.108,0,0,1-1.788-4.75,7.654,7.654,0,0,1,1.966-5.593,7.286,7.286,0,0,1,5.465-2.018,6.4,6.4,0,0,1,4.469,1.328,5.118,5.118,0,0,1,1.481,4.035c0,.332-.026.715-.051,1.149-.051.409-.1.894-.179,1.4H40.761a.192.192,0,0,1-.026.128v.255a1.811,1.811,0,0,0,.792,1.634,4.36,4.36,0,0,0,2.452.536,13.464,13.464,0,0,0,1.737-.1,16.225,16.225,0,0,0,1.813-.357Z" transform="translate(-17.956 226.872)" fill="#009b7b" fill-rule="evenodd"/><path d="M1003.19-241.415a3.214,3.214,0,0,0,3.253-3.227,3.21,3.21,0,0,0-3.253-3.21,3.214,3.214,0,0,0-3.27,3.21A3.218,3.218,0,0,0,1003.19-241.415Zm-2.622-3.227a2.6,2.6,0,0,1,2.622-2.673,2.6,2.6,0,0,1,2.606,2.673,2.6,2.6,0,0,1-2.606,2.691A2.6,2.6,0,0,1,1000.568-244.641Zm1.941.255h.647l.979,1.609h.63l-1.056-1.635a.966.966,0,0,0,.962-1.022c0-.732-.434-1.056-1.311-1.056h-1.413v3.712h.562Zm0-.477v-1.149h.766c.392,0,.809.085.809.545,0,.57-.426.6-.9.6Z" transform="translate(-831.927 247.851)" fill="#e51636"/></svg>