<svg xmlns="http://www.w3.org/2000/svg" width="24.117" height="25.688" viewBox="0 0 24.117 25.688"><path d="M-1.836-34.578a7.481,7.481,0,0,0,3.776-6.511A7.491,7.491,0,0,0-5.572-48.6a7.491,7.491,0,0,0-7.511,7.511,7.481,7.481,0,0,0,3.776,6.511A11.82,11.82,0,0,0-17.43-23.312h1.592A10.235,10.235,0,0,1-5.572-33.578,10.235,10.235,0,0,1,4.695-23.312H6.287A11.82,11.82,0,0,0-1.836-34.578Zm-9.654-6.511a5.9,5.9,0,0,1,5.919-5.919A5.9,5.9,0,0,1,.347-41.089,5.923,5.923,0,0,1-5.572-35.17,5.923,5.923,0,0,1-11.491-41.089Z" transform="translate(17.63 48.8)" fill="#4a4a4a" stroke="#fff" stroke-width="0.4"/></svg>