<svg xmlns="http://www.w3.org/2000/svg" width="83.384" height="30.328" viewBox="0 0 83.384 30.328">
  <g id="VTEX_Serious_Black_CMYK" transform="translate(-194.248 -186.14)">
    <path id="Caminho_1510" data-name="Caminho 1510" d="M227.064,186.14H200.575a2.724,2.724,0,0,0-2.408,4l2.65,5.017h-4.8a1.766,1.766,0,0,0-1.562,2.589l8.522,16.131a1.766,1.766,0,0,0,3.122,0l2.315-4.357,2.9,5.5a2.725,2.725,0,0,0,4.816.006l13.277-24.984A2.653,2.653,0,0,0,227.064,186.14Zm-11.9,10.675-5.725,10.775a1.176,1.176,0,0,1-2.077,0l-5.67-10.73a1.176,1.176,0,0,1,1.035-1.726h11.426a1.144,1.144,0,0,1,1.01,1.681Z" transform="translate(0 0)" fill="#fff"/>
    <path id="Caminho_1511" data-name="Caminho 1511" d="M936.391,318.23h-2.9v9.93a.342.342,0,0,1-.341.341h-2.235a.342.342,0,0,1-.341-.341v-9.93h-2.914a.328.328,0,0,1-.341-.324v-1.757a.328.328,0,0,1,.341-.324h8.729a.343.343,0,0,1,.358.324v1.757A.343.343,0,0,1,936.391,318.23Z" transform="translate(-681.152 -120.5)" fill="#fff"/>
    <path id="Caminho_1512" data-name="Caminho 1512" d="M1087.168,326.382a22.384,22.384,0,0,1-3.444.222c-2.2,0-4.145-.563-4.145-3.667V317.27c0-3.1,1.962-3.65,4.162-3.65a22.1,22.1,0,0,1,3.427.222c.239.034.341.12.341.341v1.589a.342.342,0,0,1-.341.341h-3.6c-.8,0-1.091.273-1.091,1.16v1.552h4.552a.342.342,0,0,1,.341.341v1.62a.342.342,0,0,1-.341.341h-4.552v1.808c0,.887.29,1.16,1.091,1.16h3.6a.342.342,0,0,1,.341.341v1.587C1087.51,326.245,1087.407,326.348,1087.168,326.382Z" transform="translate(-822.629 -118.451)" fill="#fff"/>
    <path id="Caminho_1513" data-name="Caminho 1513" d="M1225.69,328.482h-2.712a.453.453,0,0,1-.443-.256l-2.351-3.733-2.13,3.651c-.12.2-.239.341-.425.341H1215.1a.225.225,0,0,1-.256-.222.318.318,0,0,1,.034-.12l3.695-6.162-3.733-5.851a.242.242,0,0,1-.034-.1.246.246,0,0,1,.255-.222h2.746c.188,0,.324.171.425.324l2.182,3.446,2.112-3.446a.553.553,0,0,1,.425-.324h2.524a.213.213,0,0,1,.222.324l-3.715,5.887,3.874,6.126a.382.382,0,0,1,.051.171C1225.913,328.414,1225.827,328.482,1225.69,328.482Z" transform="translate(-948.281 -120.483)" fill="#fff"/>
    <path id="Caminho_1514" data-name="Caminho 1514" d="M756.142,316.282a.263.263,0,0,0-.258.212l-2.476,9.164c-.034.188-.085.256-.239.256s-.2-.071-.239-.256l-2.479-9.166a.264.264,0,0,0-.258-.212h-2.437a.264.264,0,0,0-.256.323s3.024,10.51,3.058,10.613a2.567,2.567,0,0,0,2.63,1.851,2.647,2.647,0,0,0,2.628-1.847c.048-.142,3.005-10.617,3.005-10.617a.263.263,0,0,0-.256-.322Z" transform="translate(-514.063 -120.923)" fill="#fff"/>
    <path id="Caminho_1515" data-name="Caminho 1515" d="M227.064,186.14H200.575a2.724,2.724,0,0,0-2.408,4l2.65,5.017h-4.8a1.766,1.766,0,0,0-1.562,2.589l8.522,16.131a1.766,1.766,0,0,0,3.122,0l2.315-4.357,2.9,5.5a2.725,2.725,0,0,0,4.816.006l13.277-24.984A2.653,2.653,0,0,0,227.064,186.14Zm-11.9,10.675-5.725,10.775a1.176,1.176,0,0,1-2.077,0l-5.67-10.73a1.176,1.176,0,0,1,1.035-1.726h11.426a1.144,1.144,0,0,1,1.01,1.681Z" transform="translate(0 0)" fill="#fff"/>
  </g>
</svg>
