<svg xmlns="http://www.w3.org/2000/svg" width="23.468" height="16.516" viewBox="0 0 23.468 16.516">
  <g id="XMLID_822_" transform="translate(0 -45.917)">
    <path id="XMLID_823_" d="M22.553,47.335c-.847-1.007-2.411-1.418-5.4-1.418H6.313c-3.055,0-4.646.437-5.49,1.509C0,48.472,0,50.012,0,52.143v4.063c0,4.13.976,6.226,6.313,6.226H17.155c2.59,0,4.026-.362,4.954-1.251.952-.911,1.359-2.4,1.359-4.975V52.143C23.468,49.9,23.4,48.346,22.553,47.335Zm-7.487,7.4-4.924,2.573a.757.757,0,0,1-1.108-.671v-5.13a.757.757,0,0,1,1.106-.672l4.924,2.557a.757.757,0,0,1,0,1.343Z" fill="#fff"/>
  </g>
</svg>
